<?xml version="1.0" encoding="UTF-8"?>
<!DOCTYPE svg  PUBLIC '-//W3C//DTD SVG 1.1//EN'  'http://www.w3.org/Graphics/SVG/1.1/DTD/svg11.dtd'>
<svg width="171px" height="32px" clip-rule="evenodd" fill-rule="evenodd" image-rendering="optimizeQuality" shape-rendering="geometricPrecision" text-rendering="geometricPrecision" version="1.1" viewBox="0 0 536.03 100.63" xml:space="preserve" xmlns="http://www.w3.org/2000/svg">
 <defs>
  <style type="text/css">
   <![CDATA[
    .fil2 {fill:#011C47}
    .fil1 {fill:#1BA3A3}
    .fil0 {fill:#011C47;fill-rule:nonzero}
   ]]>
  </style>
 </defs>
 
  
  
   <path class="fil0" d="m364.82 51.317c0 3.628 0.64 7.008 1.954 10.175 1.315 3.167 3.127 5.906 5.437 8.255 2.274 2.348 5.01 4.198 8.172 5.55 3.127 1.352 6.503 2.028 10.127 2.028 3.66 0 6.964-0.676 9.878-2.064 2.878-1.387 5.366-3.273 7.355-5.657 2.026-2.384 3.589-5.159 4.691-8.361 1.101-3.202 1.634-6.618 1.634-10.247v-39.422c0-1.637 0.32-3.167 0.96-4.554 0.639-1.388 1.527-2.598 2.629-3.629 1.101-1.032 2.38-1.85 3.802-2.455 1.421-0.605 2.914-0.89 4.512-0.89 1.635 0 3.127 0.285 4.477 0.89 1.351 0.605 2.559 1.423 3.589 2.455 1.031 1.031 1.848 2.241 2.417 3.629 0.568 1.387 0.852 2.917 0.852 4.554v39.173c0 6.831-1.137 13.271-3.446 19.32-2.31 6.048-5.543 11.314-9.665 15.833-4.122 4.518-9.061 8.112-14.817 10.745-5.757 2.633-12.046 3.949-18.868 3.949s-13.183-1.316-19.116-3.913c-5.934-2.598-11.122-6.12-15.528-10.603s-7.888-9.713-10.447-15.691c-2.558-5.977-3.837-12.346-3.837-19.106v-39.707c0-1.637 0.32-3.167 0.924-4.554 0.604-1.388 1.421-2.598 2.451-3.629 1.031-1.032 2.275-1.85 3.696-2.455s2.913-0.89 4.512-0.89c1.564 0 3.056 0.285 4.478 0.89 1.421 0.605 2.664 1.423 3.766 2.455 1.066 1.031 1.883 2.241 2.487 3.629 0.604 1.387 0.924 2.917 0.924 4.554v39.743z"/>
   <path class="fil1" d="m328.29 77.259c6.453 0 11.683 5.231 11.683 11.683 0 6.453-5.23 11.684-11.683 11.684-6.452 0-11.683-5.231-11.683-11.684 0-6.452 5.231-11.683 11.683-11.683z"/>
   <path class="fil0" d="m466 0.075h52.377c1.919 0.023 3.417 0.327 5.172 1.06 4.254 1.891 6.84 5.739 6.84 10.026-7e-3 2.193-0.719 4.338-2.062 6.151l-57.951 78.481c-3.711 5.025-11.22 6.346-16.686 2.934s-6.902-10.316-3.191-15.341l44.018-59.614h-27.904c-7.224 0-13.134-5.313-13.134-11.807 0-2.552 0.913-4.921 2.459-6.858 2.149-3.023 5.863-5.032 10.062-5.032zm32.138 76.901h25.875c6.607 0 12.012 5.314 12.012 11.808s-5.405 11.808-12.012 11.808h-25.875c-6.607 0-12.012-5.314-12.012-11.808s5.405-11.808 12.012-11.808z"/>
   <path class="fil0" d="m305.27 89.189c0 1.633-0.32 3.124-0.923 4.509-0.603 1.384-1.383 2.591-2.376 3.621-1.028 1.03-2.199 1.846-3.582 2.414-1.419 0.569-2.873 0.853-4.434 0.853-1.596 0-3.085-0.284-4.575-0.853-1.454-0.568-2.696-1.349-3.795-2.378-1.064-1.03-1.915-2.237-2.554-3.622-0.638-1.384-0.957-2.911-0.957-4.544v-39.552c0-0.568 0.071-0.994 0.212-1.278-0.141-3.479-0.851-6.746-2.128-9.799-1.276-3.018-3.014-5.681-5.213-7.953s-4.753-4.083-7.697-5.397-6.207-1.953-9.753-1.953c-3.618 0-6.952 0.639-10.002 1.953-3.051 1.314-5.64 3.16-7.803 5.503-2.164 2.344-3.866 5.077-5.108 8.237-1.241 3.16-1.879 6.533-1.879 10.154v40.085c0 1.633-0.284 3.16-0.852 4.544-0.567 1.385-1.383 2.592-2.411 3.622-1.029 1.029-2.235 1.81-3.583 2.378-1.347 0.569-2.837 0.853-4.469 0.853-1.596 0-3.085-0.284-4.504-0.853-1.419-0.568-2.695-1.384-3.795-2.414s-1.986-2.237-2.625-3.621c-0.638-1.385-0.957-2.876-0.957-4.509v-40.156c0-6.816 1.241-13.207 3.688-19.136 2.448-5.93 5.817-11.113 10.109-15.551 4.291-4.438 9.363-7.918 15.215-10.474 5.888-2.556 12.166-3.834 18.94-3.834 6.81 0 13.123 1.278 18.94 3.834 5.816 2.556 10.853 6.036 15.145 10.474 4.256 4.438 7.59 9.621 10.037 15.551 2.447 5.929 3.689 12.32 3.689 19.136v40.156z"/>
   <path class="fil0" d="m17.704 0h52.793c1.935 0.023 3.444 0.327 5.213 1.06 4.287 1.889 6.894 5.734 6.894 10.019-7e-3 2.19-0.724 4.335-2.078 6.146l-58.412 78.428c-3.74 5.022-11.309 6.342-16.818 2.932-5.51-3.409-6.958-10.308-3.217-15.33l44.324-59.514h-28.309c-7.307 0-13.286-5.33-13.286-11.844 0-3.903 2.148-7.38 5.441-9.541 2.058-1.474 4.649-2.356 7.455-2.356zm32.045 76.675h26.173c6.683 0 12.151 5.371 12.151 11.936s-5.468 11.937-12.151 11.937h-26.173c-6.683 0-12.15-5.372-12.15-11.937s5.467-11.936 12.15-11.936z"/>
   <path class="fil2" d="m143.87 0.061c1.177-0.051 8.591-0.031 12.108 0.945 5.14 1.014 9.121 5.471 9.361 10.986 0.281 6.461-4.679 11.924-11.079 12.203-0.477 0.021-0.948 0.012-1.413-0.024 2e-3 0.076-6.984-0.662-7.954-0.619-14.766 0.643-26.215 13.142-25.572 27.917 0.644 14.774 13.136 26.229 27.901 25.586 14.766-0.644 26.215-13.143 25.571-27.918-0.044-1.026-1.054-7.139-3.156-11.577-0.688-1.632-1.38-3.388-1.5-5.227-0.585-9.011 6.505-12.764 11.127-12.819 4.623-0.055 7.929 2.29 10.156 5.348 6.261 9.898 6.789 22.128 6.85 23.252 1.511 28.04-20.293 51.222-48.025 52.431-27.731 1.209-51.192-20.305-52.4-48.053s20.293-51.222 48.025-52.431z"/>
  
 
</svg>
